<svg width="242" height="64" viewBox="0 0 242 64" fill="none" xmlns="http://www.w3.org/2000/svg">
<rect width="242" height="64" rx="10" fill="#3CB9FF"/>
<path d="M104.988 35.966C105.096 36.194 105.15 36.416 105.15 36.632C105.15 37.028 104.988 37.364 104.664 37.64C104.352 37.916 103.992 38.054 103.584 38.054C103.308 38.054 103.056 37.982 102.828 37.838C102.6 37.694 102.42 37.478 102.288 37.19L101.478 35.372H95.6455L94.8175 37.19C94.6855 37.478 94.4995 37.694 94.2595 37.838C94.0315 37.982 93.7795 38.054 93.5035 38.054C93.0955 38.054 92.7235 37.916 92.3875 37.64C92.0635 37.364 91.9015 37.028 91.9015 36.632C91.9015 36.416 91.9555 36.194 92.0635 35.966L96.8155 26.21C96.9715 25.886 97.1995 25.64 97.4995 25.472C97.8115 25.292 98.1535 25.202 98.5255 25.202C98.8855 25.202 99.2215 25.292 99.5335 25.472C99.8455 25.64 100.08 25.886 100.236 26.21L104.988 35.966ZM96.7615 32.888H100.362L98.5615 28.874L96.7615 32.888ZM114.055 25.22C114.535 25.22 114.925 25.358 115.225 25.634C115.537 25.898 115.693 26.24 115.693 26.66V36.632C115.693 37.088 115.549 37.448 115.261 37.712C114.973 37.976 114.589 38.108 114.109 38.108C113.665 38.108 113.299 37.994 113.011 37.766C112.735 37.526 112.579 37.202 112.543 36.794C112.291 37.214 111.919 37.544 111.427 37.784C110.947 38.024 110.413 38.144 109.825 38.144C109.069 38.144 108.391 37.952 107.791 37.568C107.203 37.172 106.741 36.62 106.405 35.912C106.069 35.204 105.901 34.394 105.901 33.482C105.901 32.57 106.063 31.772 106.387 31.088C106.723 30.392 107.185 29.858 107.773 29.486C108.373 29.114 109.057 28.928 109.825 28.928C110.389 28.928 110.905 29.042 111.373 29.27C111.853 29.498 112.225 29.804 112.489 30.188V26.606C112.489 26.186 112.627 25.85 112.903 25.598C113.191 25.346 113.575 25.22 114.055 25.22ZM110.797 35.75C111.361 35.75 111.793 35.558 112.093 35.174C112.393 34.79 112.543 34.238 112.543 33.518C112.543 32.81 112.393 32.27 112.093 31.898C111.793 31.514 111.361 31.322 110.797 31.322C110.245 31.322 109.819 31.508 109.519 31.88C109.219 32.252 109.069 32.786 109.069 33.482C109.069 34.202 109.219 34.76 109.519 35.156C109.831 35.552 110.257 35.75 110.797 35.75ZM125.305 25.22C125.785 25.22 126.175 25.358 126.475 25.634C126.787 25.898 126.943 26.24 126.943 26.66V36.632C126.943 37.088 126.799 37.448 126.511 37.712C126.223 37.976 125.839 38.108 125.359 38.108C124.915 38.108 124.549 37.994 124.261 37.766C123.985 37.526 123.829 37.202 123.793 36.794C123.541 37.214 123.169 37.544 122.677 37.784C122.197 38.024 121.663 38.144 121.075 38.144C120.319 38.144 119.641 37.952 119.041 37.568C118.453 37.172 117.991 36.62 117.655 35.912C117.319 35.204 117.151 34.394 117.151 33.482C117.151 32.57 117.313 31.772 117.637 31.088C117.973 30.392 118.435 29.858 119.023 29.486C119.623 29.114 120.307 28.928 121.075 28.928C121.639 28.928 122.155 29.042 122.623 29.27C123.103 29.498 123.475 29.804 123.739 30.188V26.606C123.739 26.186 123.877 25.85 124.153 25.598C124.441 25.346 124.825 25.22 125.305 25.22ZM122.047 35.75C122.611 35.75 123.043 35.558 123.343 35.174C123.643 34.79 123.793 34.238 123.793 33.518C123.793 32.81 123.643 32.27 123.343 31.898C123.043 31.514 122.611 31.322 122.047 31.322C121.495 31.322 121.069 31.508 120.769 31.88C120.469 32.252 120.319 32.786 120.319 33.482C120.319 34.202 120.469 34.76 120.769 35.156C121.081 35.552 121.507 35.75 122.047 35.75ZM139.203 35.822C140.007 35.87 140.409 36.23 140.409 36.902C140.409 37.322 140.247 37.634 139.923 37.838C139.599 38.042 139.137 38.126 138.537 38.09L138.033 38.054C136.953 37.97 136.131 37.646 135.567 37.082C135.015 36.506 134.739 35.708 134.739 34.688V31.502H134.217C133.257 31.502 132.777 31.106 132.777 30.314C132.777 29.534 133.257 29.144 134.217 29.144H134.739V27.974C134.739 27.518 134.883 27.158 135.171 26.894C135.459 26.618 135.849 26.48 136.341 26.48C136.833 26.48 137.223 26.618 137.511 26.894C137.799 27.158 137.943 27.518 137.943 27.974V29.144H138.933C139.893 29.144 140.373 29.534 140.373 30.314C140.373 31.106 139.893 31.502 138.933 31.502H137.943V34.958C137.943 35.186 138.009 35.378 138.141 35.534C138.285 35.69 138.465 35.774 138.681 35.786L139.203 35.822ZM145.724 38.144C144.752 38.144 143.894 37.958 143.15 37.586C142.418 37.202 141.848 36.662 141.44 35.966C141.044 35.27 140.846 34.454 140.846 33.518C140.846 32.582 141.044 31.772 141.44 31.088C141.848 30.392 142.418 29.858 143.15 29.486C143.882 29.114 144.74 28.928 145.724 28.928C146.708 28.928 147.566 29.114 148.298 29.486C149.03 29.858 149.594 30.392 149.99 31.088C150.398 31.772 150.602 32.582 150.602 33.518C150.602 34.454 150.398 35.27 149.99 35.966C149.594 36.662 149.03 37.202 148.298 37.586C147.566 37.958 146.708 38.144 145.724 38.144ZM145.724 35.75C146.864 35.75 147.434 35.006 147.434 33.518C147.434 32.03 146.864 31.286 145.724 31.286C144.584 31.286 144.014 32.03 144.014 33.518C144.014 35.006 144.584 35.75 145.724 35.75ZM160.696 38.144C159.892 38.144 159.214 38.084 158.662 37.964C158.11 37.844 157.624 37.652 157.204 37.388C157.036 37.304 156.904 37.16 156.808 36.956C156.712 36.752 156.664 36.524 156.664 36.272C156.664 35.948 156.748 35.684 156.916 35.48C157.096 35.264 157.318 35.156 157.582 35.156C157.762 35.156 157.93 35.18 158.086 35.228C158.242 35.264 158.434 35.33 158.662 35.426C159.046 35.558 159.382 35.66 159.67 35.732C159.97 35.804 160.348 35.84 160.804 35.84C161.128 35.84 161.38 35.798 161.56 35.714C161.752 35.618 161.848 35.486 161.848 35.318C161.848 35.186 161.8 35.084 161.704 35.012C161.62 34.94 161.452 34.874 161.2 34.814C160.948 34.742 160.522 34.646 159.922 34.526C158.854 34.322 158.08 34.016 157.6 33.608C157.132 33.188 156.898 32.6 156.898 31.844C156.898 31.292 157.066 30.794 157.402 30.35C157.75 29.906 158.224 29.558 158.824 29.306C159.424 29.054 160.096 28.928 160.84 28.928C161.38 28.928 161.902 28.994 162.406 29.126C162.922 29.258 163.378 29.444 163.774 29.684C164.146 29.9 164.332 30.248 164.332 30.728C164.332 31.064 164.242 31.346 164.062 31.574C163.882 31.802 163.66 31.916 163.396 31.916C163.084 31.916 162.712 31.814 162.28 31.61C161.992 31.478 161.734 31.382 161.506 31.322C161.29 31.25 161.032 31.214 160.732 31.214C160.432 31.214 160.198 31.262 160.03 31.358C159.862 31.442 159.778 31.568 159.778 31.736C159.778 31.928 159.892 32.078 160.12 32.186C160.36 32.294 160.828 32.414 161.524 32.546C162.688 32.75 163.51 33.062 163.99 33.482C164.47 33.89 164.71 34.484 164.71 35.264C164.71 36.14 164.344 36.842 163.612 37.37C162.892 37.886 161.92 38.144 160.696 38.144ZM171.178 35.822C171.982 35.87 172.384 36.23 172.384 36.902C172.384 37.322 172.222 37.634 171.898 37.838C171.574 38.042 171.112 38.126 170.512 38.09L170.008 38.054C168.928 37.97 168.106 37.646 167.542 37.082C166.99 36.506 166.714 35.708 166.714 34.688V31.502H166.192C165.232 31.502 164.752 31.106 164.752 30.314C164.752 29.534 165.232 29.144 166.192 29.144H166.714V27.974C166.714 27.518 166.858 27.158 167.146 26.894C167.434 26.618 167.824 26.48 168.316 26.48C168.808 26.48 169.198 26.618 169.486 26.894C169.774 27.158 169.918 27.518 169.918 27.974V29.144H170.908C171.868 29.144 172.348 29.534 172.348 30.314C172.348 31.106 171.868 31.502 170.908 31.502H169.918V34.958C169.918 35.186 169.984 35.378 170.116 35.534C170.26 35.69 170.44 35.774 170.656 35.786L171.178 35.822ZM179.35 29.864C179.482 29.564 179.662 29.342 179.89 29.198C180.118 29.054 180.37 28.982 180.646 28.982C181.042 28.982 181.396 29.114 181.708 29.378C182.02 29.642 182.176 29.96 182.176 30.332C182.176 30.536 182.128 30.734 182.032 30.926L177.262 40.484C177.118 40.784 176.926 41.006 176.686 41.15C176.458 41.294 176.206 41.366 175.93 41.366C175.534 41.366 175.18 41.234 174.868 40.97C174.568 40.718 174.418 40.406 174.418 40.034C174.418 39.83 174.472 39.62 174.58 39.404L175.75 37.046L172.69 30.926C172.594 30.71 172.546 30.518 172.546 30.35C172.546 29.966 172.714 29.642 173.05 29.378C173.386 29.102 173.764 28.964 174.184 28.964C174.472 28.964 174.736 29.042 174.976 29.198C175.228 29.342 175.42 29.564 175.552 29.864L177.46 34.004L179.35 29.864ZM185.173 38.108C184.717 38.108 184.333 37.988 184.021 37.748C183.721 37.496 183.571 37.124 183.571 36.632V26.714C183.571 26.222 183.721 25.85 184.021 25.598C184.333 25.346 184.717 25.22 185.173 25.22C185.629 25.22 186.007 25.346 186.307 25.598C186.619 25.85 186.775 26.222 186.775 26.714V36.632C186.775 37.124 186.619 37.496 186.307 37.748C186.007 37.988 185.629 38.108 185.173 38.108ZM195.959 28.964C196.451 28.964 196.841 29.096 197.129 29.36C197.417 29.624 197.561 29.984 197.561 30.44V36.668C197.561 37.088 197.411 37.436 197.111 37.712C196.811 37.976 196.421 38.108 195.941 38.108C195.509 38.108 195.155 37.994 194.879 37.766C194.603 37.526 194.459 37.208 194.447 36.812C194.171 37.244 193.817 37.574 193.385 37.802C192.965 38.03 192.479 38.144 191.927 38.144C190.787 38.144 189.941 37.832 189.389 37.208C188.837 36.572 188.561 35.612 188.561 34.328V30.44C188.561 29.984 188.705 29.624 188.993 29.36C189.281 29.096 189.671 28.964 190.163 28.964C190.655 28.964 191.045 29.096 191.333 29.36C191.621 29.624 191.765 29.984 191.765 30.44V34.4C191.765 35.264 192.137 35.696 192.881 35.696C193.313 35.696 193.667 35.54 193.943 35.228C194.219 34.916 194.357 34.508 194.357 34.004V30.44C194.357 29.984 194.501 29.624 194.789 29.36C195.077 29.096 195.467 28.964 195.959 28.964ZM202.918 38.144C202.114 38.144 201.436 38.084 200.884 37.964C200.332 37.844 199.846 37.652 199.426 37.388C199.258 37.304 199.126 37.16 199.03 36.956C198.934 36.752 198.886 36.524 198.886 36.272C198.886 35.948 198.97 35.684 199.138 35.48C199.318 35.264 199.54 35.156 199.804 35.156C199.984 35.156 200.152 35.18 200.308 35.228C200.464 35.264 200.656 35.33 200.884 35.426C201.268 35.558 201.604 35.66 201.892 35.732C202.192 35.804 202.57 35.84 203.026 35.84C203.35 35.84 203.602 35.798 203.782 35.714C203.974 35.618 204.07 35.486 204.07 35.318C204.07 35.186 204.022 35.084 203.926 35.012C203.842 34.94 203.674 34.874 203.422 34.814C203.17 34.742 202.744 34.646 202.144 34.526C201.076 34.322 200.302 34.016 199.822 33.608C199.354 33.188 199.12 32.6 199.12 31.844C199.12 31.292 199.288 30.794 199.624 30.35C199.972 29.906 200.446 29.558 201.046 29.306C201.646 29.054 202.318 28.928 203.062 28.928C203.602 28.928 204.124 28.994 204.628 29.126C205.144 29.258 205.6 29.444 205.996 29.684C206.368 29.9 206.554 30.248 206.554 30.728C206.554 31.064 206.464 31.346 206.284 31.574C206.104 31.802 205.882 31.916 205.618 31.916C205.306 31.916 204.934 31.814 204.502 31.61C204.214 31.478 203.956 31.382 203.728 31.322C203.512 31.25 203.254 31.214 202.954 31.214C202.654 31.214 202.42 31.262 202.252 31.358C202.084 31.442 202 31.568 202 31.736C202 31.928 202.114 32.078 202.342 32.186C202.582 32.294 203.05 32.414 203.746 32.546C204.91 32.75 205.732 33.062 206.212 33.482C206.692 33.89 206.932 34.484 206.932 35.264C206.932 36.14 206.566 36.842 205.834 37.37C205.114 37.886 204.142 38.144 202.918 38.144Z" fill="white"/>
<rect x="7" y="7" width="50" height="50" rx="25" fill="white"/>
<path d="M29.5 22C29.5 21.337 29.7634 20.7011 30.2322 20.2322C30.7011 19.7634 31.337 19.5 32 19.5C32.663 19.5 33.2989 19.7634 33.7678 20.2322C34.2366 20.7011 34.5 21.337 34.5 22V26.375H37.9375C38.3068 26.375 38.6726 26.4477 39.0138 26.5891C39.355 26.7304 39.6651 26.9376 39.9262 27.1988C40.1874 27.4599 40.3946 27.77 40.5359 28.1112C40.6772 28.4524 40.75 28.8182 40.75 29.1875V31.375H23.3625C23.3731 30.5962 23.3656 29.8172 23.34 29.0387C23.2937 27.6162 24.4225 26.375 25.89 26.375H29.5V22Z" fill="#797979"/>
<path d="M23.2988 33.25H40.75V34.6825C40.4171 34.5372 40.0533 34.4771 39.6913 34.5076C39.3294 34.5381 38.9807 34.6583 38.6769 34.8572C38.373 35.0562 38.1234 35.3277 37.9507 35.6472C37.778 35.9668 37.6875 36.3243 37.6875 36.6875V39.7413C37.2237 39.5031 36.6901 39.4384 36.1828 39.5589C35.6755 39.6794 35.2279 39.9772 34.9207 40.3985C34.6136 40.8198 34.467 41.337 34.5074 41.8569C34.5479 42.3767 34.7727 42.865 35.1413 43.2337L36.4063 44.5H30.1925C30.3988 44.02 30.6425 43.41 30.8575 42.765C31.0464 42.2178 31.1951 41.6576 31.3025 41.0887C31.3362 40.8972 31.3595 40.704 31.3725 40.51L31.375 40.4663V40.4375C31.3767 40.1889 31.2795 39.9497 31.1049 39.7728C30.9302 39.5958 30.6924 39.4954 30.4438 39.4938C30.1952 39.4921 29.956 39.5893 29.7791 39.7639C29.6021 39.9386 29.5017 40.1764 29.5 40.425C29.4905 40.5386 29.4755 40.6516 29.455 40.7637C29.405 41.045 29.3 41.5088 29.08 42.1725C28.8117 42.9665 28.4961 43.7437 28.135 44.5H26.4575C26.61 44.1663 26.785 43.77 26.9663 43.3387C27.4738 42.1275 28.0663 40.545 28.2413 39.32C28.2587 39.1981 28.2519 39.074 28.2214 38.9547C28.1908 38.8355 28.137 38.7234 28.0631 38.6249C27.9893 38.5264 27.8967 38.4434 27.7908 38.3807C27.6848 38.318 27.5676 38.2768 27.4457 38.2594C27.3238 38.242 27.1997 38.2488 27.0804 38.2793C26.9611 38.3099 26.8491 38.3636 26.7506 38.4375C26.6521 38.5114 26.5691 38.604 26.5064 38.7099C26.4437 38.8159 26.4024 38.9331 26.385 39.055C26.2475 40.0175 25.745 41.4037 25.2375 42.6137C24.9703 43.2496 24.6869 43.8786 24.3875 44.5H21.6875C21.519 44.5 21.3536 44.4546 21.2087 44.3685C21.0638 44.2824 20.9447 44.1588 20.8641 44.0108C20.7835 43.8628 20.7443 43.6958 20.7507 43.5274C20.757 43.3589 20.8086 43.1953 20.9 43.0538C22.085 41.2225 22.7375 38.5775 23.0688 35.8925C23.1754 35.0145 23.2521 34.1332 23.2988 33.25V33.25Z" fill="#797979"/>
<path d="M36.0252 41.025C36.2009 40.8494 36.4392 40.7508 36.6877 40.7508C36.9361 40.7508 37.1744 40.8494 37.3502 41.025L38.9377 42.6125V36.6875C38.9377 36.4389 39.0364 36.2004 39.2122 36.0246C39.3881 35.8488 39.6265 35.75 39.8752 35.75C40.1238 35.75 40.3622 35.8488 40.5381 36.0246C40.7139 36.2004 40.8127 36.4389 40.8127 36.6875V42.4875L42.2752 41.025C42.361 40.9329 42.4645 40.859 42.5795 40.8078C42.6945 40.7565 42.8186 40.729 42.9445 40.7268C43.0704 40.7245 43.1954 40.7477 43.3121 40.7948C43.4289 40.842 43.5349 40.9122 43.6239 41.0012C43.713 41.0902 43.7832 41.1963 43.8303 41.313C43.8775 41.4297 43.9006 41.5548 43.8984 41.6807C43.8962 41.8065 43.8686 41.9307 43.8174 42.0457C43.7661 42.1607 43.6923 42.2642 43.6002 42.35L40.4752 45.475C40.2994 45.6506 40.0611 45.7492 39.8127 45.7492C39.5642 45.7492 39.3259 45.6506 39.1502 45.475L36.0252 42.35C35.8496 42.1742 35.751 41.9359 35.751 41.6875C35.751 41.4391 35.8496 41.2008 36.0252 41.025V41.025Z" fill="#797979"/>
</svg>
