<svg width="242" height="64" viewBox="0 0 242 64" fill="none" xmlns="http://www.w3.org/2000/svg">
<rect width="242" height="64" rx="10" fill="#3CB9FF"/>
<path d="M94.7571 35.966C94.8651 36.194 94.9191 36.416 94.9191 36.632C94.9191 37.028 94.7571 37.364 94.4331 37.64C94.1211 37.916 93.7611 38.054 93.3531 38.054C93.0771 38.054 92.8251 37.982 92.5971 37.838C92.3691 37.694 92.1891 37.478 92.0571 37.19L91.2471 35.372H85.4151L84.5871 37.19C84.4551 37.478 84.2691 37.694 84.0291 37.838C83.8011 37.982 83.5491 38.054 83.2731 38.054C82.8651 38.054 82.4931 37.916 82.1571 37.64C81.8331 37.364 81.6711 37.028 81.6711 36.632C81.6711 36.416 81.7251 36.194 81.8331 35.966L86.5851 26.21C86.7411 25.886 86.9691 25.64 87.2691 25.472C87.5811 25.292 87.9231 25.202 88.2951 25.202C88.6551 25.202 88.9911 25.292 89.3031 25.472C89.6151 25.64 89.8491 25.886 90.0051 26.21L94.7571 35.966ZM86.5311 32.888H90.1311L88.3311 28.874L86.5311 32.888ZM95.4904 41.276C94.9144 41.312 94.4584 41.228 94.1224 41.024C93.7864 40.832 93.6184 40.52 93.6184 40.088C93.6184 39.74 93.7204 39.476 93.9244 39.296C94.1164 39.128 94.4164 39.032 94.8244 39.008L95.3284 38.972C95.5564 38.96 95.7364 38.876 95.8684 38.72C96.0124 38.564 96.0844 38.366 96.0844 38.126V30.44C96.0844 29.948 96.2344 29.582 96.5344 29.342C96.8464 29.09 97.2304 28.964 97.6864 28.964C98.1424 28.964 98.5204 29.09 98.8204 29.342C99.1324 29.582 99.2884 29.948 99.2884 30.44V37.874C99.2884 38.882 99.0124 39.674 98.4604 40.25C97.9204 40.826 97.0984 41.156 95.9944 41.24L95.4904 41.276ZM97.6504 27.704C97.1104 27.704 96.6784 27.566 96.3544 27.29C96.0424 27.002 95.8864 26.624 95.8864 26.156C95.8864 25.688 96.0424 25.316 96.3544 25.04C96.6784 24.764 97.1104 24.626 97.6504 24.626C98.1784 24.626 98.6044 24.764 98.9284 25.04C99.2524 25.316 99.4144 25.688 99.4144 26.156C99.4144 26.624 99.2524 27.002 98.9284 27.29C98.6164 27.566 98.1904 27.704 97.6504 27.704ZM105.611 38.144C104.639 38.144 103.781 37.958 103.037 37.586C102.305 37.202 101.735 36.662 101.327 35.966C100.931 35.27 100.733 34.454 100.733 33.518C100.733 32.582 100.931 31.772 101.327 31.088C101.735 30.392 102.305 29.858 103.037 29.486C103.769 29.114 104.627 28.928 105.611 28.928C106.595 28.928 107.453 29.114 108.185 29.486C108.917 29.858 109.481 30.392 109.877 31.088C110.285 31.772 110.489 32.582 110.489 33.518C110.489 34.454 110.285 35.27 109.877 35.966C109.481 36.662 108.917 37.202 108.185 37.586C107.453 37.958 106.595 38.144 105.611 38.144ZM105.611 35.75C106.751 35.75 107.321 35.006 107.321 33.518C107.321 32.03 106.751 31.286 105.611 31.286C104.471 31.286 103.901 32.03 103.901 33.518C103.901 35.006 104.471 35.75 105.611 35.75ZM119.266 28.964C119.758 28.964 120.148 29.096 120.436 29.36C120.724 29.624 120.868 29.984 120.868 30.44V36.668C120.868 37.088 120.718 37.436 120.418 37.712C120.118 37.976 119.728 38.108 119.248 38.108C118.816 38.108 118.462 37.994 118.186 37.766C117.91 37.526 117.766 37.208 117.754 36.812C117.478 37.244 117.124 37.574 116.692 37.802C116.272 38.03 115.786 38.144 115.234 38.144C114.094 38.144 113.248 37.832 112.696 37.208C112.144 36.572 111.868 35.612 111.868 34.328V30.44C111.868 29.984 112.012 29.624 112.3 29.36C112.588 29.096 112.978 28.964 113.47 28.964C113.962 28.964 114.352 29.096 114.64 29.36C114.928 29.624 115.072 29.984 115.072 30.44V34.4C115.072 35.264 115.444 35.696 116.188 35.696C116.62 35.696 116.974 35.54 117.25 35.228C117.526 34.916 117.664 34.508 117.664 34.004V30.44C117.664 29.984 117.808 29.624 118.096 29.36C118.384 29.096 118.774 28.964 119.266 28.964ZM127.971 35.822C128.775 35.87 129.177 36.23 129.177 36.902C129.177 37.322 129.015 37.634 128.691 37.838C128.367 38.042 127.905 38.126 127.305 38.09L126.801 38.054C125.721 37.97 124.899 37.646 124.335 37.082C123.783 36.506 123.507 35.708 123.507 34.688V31.502H122.985C122.025 31.502 121.545 31.106 121.545 30.314C121.545 29.534 122.025 29.144 122.985 29.144H123.507V27.974C123.507 27.518 123.651 27.158 123.939 26.894C124.227 26.618 124.617 26.48 125.109 26.48C125.601 26.48 125.991 26.618 126.279 26.894C126.567 27.158 126.711 27.518 126.711 27.974V29.144H127.701C128.661 29.144 129.141 29.534 129.141 30.314C129.141 31.106 128.661 31.502 127.701 31.502H126.711V34.958C126.711 35.186 126.777 35.378 126.909 35.534C127.053 35.69 127.233 35.774 127.449 35.786L127.971 35.822ZM137.228 35.156C137.504 35.156 137.726 35.264 137.894 35.48C138.074 35.696 138.164 35.978 138.164 36.326C138.164 36.806 137.93 37.172 137.462 37.424C137.054 37.628 136.568 37.802 136.004 37.946C135.452 38.078 134.942 38.144 134.474 38.144C133.49 38.144 132.632 37.958 131.9 37.586C131.168 37.214 130.604 36.68 130.208 35.984C129.812 35.288 129.614 34.472 129.614 33.536C129.614 32.648 129.8 31.856 130.172 31.16C130.556 30.452 131.084 29.906 131.756 29.522C132.44 29.126 133.208 28.928 134.06 28.928C134.888 28.928 135.614 29.108 136.238 29.468C136.862 29.828 137.342 30.338 137.678 30.998C138.026 31.658 138.2 32.432 138.2 33.32C138.2 33.596 138.134 33.812 138.002 33.968C137.882 34.112 137.702 34.184 137.462 34.184H132.71C132.794 34.76 132.98 35.174 133.268 35.426C133.556 35.678 133.982 35.804 134.546 35.804C134.846 35.804 135.122 35.774 135.374 35.714C135.626 35.642 135.908 35.546 136.22 35.426C136.4 35.354 136.574 35.294 136.742 35.246C136.922 35.186 137.084 35.156 137.228 35.156ZM134.15 31.088C133.73 31.088 133.394 31.226 133.142 31.502C132.89 31.766 132.74 32.156 132.692 32.672H135.518C135.446 31.616 134.99 31.088 134.15 31.088ZM145.277 28.964C145.685 28.928 146.009 29.024 146.249 29.252C146.489 29.468 146.609 29.792 146.609 30.224C146.609 30.704 146.495 31.052 146.267 31.268C146.051 31.484 145.655 31.622 145.079 31.682L144.539 31.736C143.939 31.808 143.507 32 143.243 32.312C142.991 32.612 142.865 33.026 142.865 33.554V36.632C142.865 37.124 142.709 37.496 142.397 37.748C142.097 37.988 141.719 38.108 141.263 38.108C140.807 38.108 140.423 37.988 140.111 37.748C139.811 37.496 139.661 37.124 139.661 36.632V30.404C139.661 29.948 139.811 29.594 140.111 29.342C140.423 29.09 140.795 28.964 141.227 28.964C141.671 28.964 142.025 29.084 142.289 29.324C142.565 29.564 142.703 29.9 142.703 30.332V30.674C142.895 30.146 143.207 29.738 143.639 29.45C144.083 29.162 144.545 29.006 145.025 28.982L145.277 28.964ZM156.474 28.928C157.842 28.928 158.85 29.258 159.498 29.918C160.158 30.566 160.488 31.556 160.488 32.888V36.65C160.488 37.106 160.35 37.466 160.074 37.73C159.81 37.982 159.438 38.108 158.958 38.108C158.538 38.108 158.19 37.988 157.914 37.748C157.65 37.508 157.506 37.184 157.482 36.776C157.314 37.208 157.032 37.544 156.636 37.784C156.24 38.024 155.766 38.144 155.214 38.144C154.602 38.144 154.05 38.024 153.558 37.784C153.066 37.532 152.676 37.19 152.388 36.758C152.112 36.314 151.974 35.816 151.974 35.264C151.974 34.628 152.136 34.124 152.46 33.752C152.796 33.368 153.324 33.092 154.044 32.924C154.764 32.756 155.736 32.672 156.96 32.672H157.446V32.456C157.446 32.036 157.35 31.736 157.158 31.556C156.966 31.364 156.642 31.268 156.186 31.268C155.694 31.268 154.974 31.436 154.026 31.772C153.75 31.868 153.516 31.916 153.324 31.916C153.024 31.916 152.784 31.808 152.604 31.592C152.424 31.376 152.334 31.094 152.334 30.746C152.334 30.482 152.388 30.266 152.496 30.098C152.604 29.93 152.778 29.78 153.018 29.648C153.438 29.432 153.966 29.258 154.602 29.126C155.238 28.994 155.862 28.928 156.474 28.928ZM155.97 36.002C156.402 36.002 156.756 35.852 157.032 35.552C157.308 35.24 157.446 34.844 157.446 34.364V34.148H157.158C156.39 34.148 155.844 34.22 155.52 34.364C155.196 34.496 155.034 34.724 155.034 35.048C155.034 35.324 155.118 35.552 155.286 35.732C155.466 35.912 155.694 36.002 155.97 36.002ZM170.926 38.144C170.122 38.144 169.444 38.084 168.892 37.964C168.34 37.844 167.854 37.652 167.434 37.388C167.266 37.304 167.134 37.16 167.038 36.956C166.942 36.752 166.894 36.524 166.894 36.272C166.894 35.948 166.978 35.684 167.146 35.48C167.326 35.264 167.548 35.156 167.812 35.156C167.992 35.156 168.16 35.18 168.316 35.228C168.472 35.264 168.664 35.33 168.892 35.426C169.276 35.558 169.612 35.66 169.9 35.732C170.2 35.804 170.578 35.84 171.034 35.84C171.358 35.84 171.61 35.798 171.79 35.714C171.982 35.618 172.078 35.486 172.078 35.318C172.078 35.186 172.03 35.084 171.934 35.012C171.85 34.94 171.682 34.874 171.43 34.814C171.178 34.742 170.752 34.646 170.152 34.526C169.084 34.322 168.31 34.016 167.83 33.608C167.362 33.188 167.128 32.6 167.128 31.844C167.128 31.292 167.296 30.794 167.632 30.35C167.98 29.906 168.454 29.558 169.054 29.306C169.654 29.054 170.326 28.928 171.07 28.928C171.61 28.928 172.132 28.994 172.636 29.126C173.152 29.258 173.608 29.444 174.004 29.684C174.376 29.9 174.562 30.248 174.562 30.728C174.562 31.064 174.472 31.346 174.292 31.574C174.112 31.802 173.89 31.916 173.626 31.916C173.314 31.916 172.942 31.814 172.51 31.61C172.222 31.478 171.964 31.382 171.736 31.322C171.52 31.25 171.262 31.214 170.962 31.214C170.662 31.214 170.428 31.262 170.26 31.358C170.092 31.442 170.008 31.568 170.008 31.736C170.008 31.928 170.122 32.078 170.35 32.186C170.59 32.294 171.058 32.414 171.754 32.546C172.918 32.75 173.74 33.062 174.22 33.482C174.7 33.89 174.94 34.484 174.94 35.264C174.94 36.14 174.574 36.842 173.842 37.37C173.122 37.886 172.15 38.144 170.926 38.144ZM181.408 35.822C182.212 35.87 182.614 36.23 182.614 36.902C182.614 37.322 182.452 37.634 182.128 37.838C181.804 38.042 181.342 38.126 180.742 38.09L180.238 38.054C179.158 37.97 178.336 37.646 177.772 37.082C177.22 36.506 176.944 35.708 176.944 34.688V31.502H176.422C175.462 31.502 174.982 31.106 174.982 30.314C174.982 29.534 175.462 29.144 176.422 29.144H176.944V27.974C176.944 27.518 177.088 27.158 177.376 26.894C177.664 26.618 178.054 26.48 178.546 26.48C179.038 26.48 179.428 26.618 179.716 26.894C180.004 27.158 180.148 27.518 180.148 27.974V29.144H181.138C182.098 29.144 182.578 29.534 182.578 30.314C182.578 31.106 182.098 31.502 181.138 31.502H180.148V34.958C180.148 35.186 180.214 35.378 180.346 35.534C180.49 35.69 180.67 35.774 180.886 35.786L181.408 35.822ZM189.581 29.864C189.713 29.564 189.893 29.342 190.121 29.198C190.349 29.054 190.601 28.982 190.877 28.982C191.273 28.982 191.627 29.114 191.939 29.378C192.251 29.642 192.407 29.96 192.407 30.332C192.407 30.536 192.359 30.734 192.263 30.926L187.493 40.484C187.349 40.784 187.157 41.006 186.917 41.15C186.689 41.294 186.437 41.366 186.161 41.366C185.765 41.366 185.411 41.234 185.099 40.97C184.799 40.718 184.649 40.406 184.649 40.034C184.649 39.83 184.703 39.62 184.811 39.404L185.981 37.046L182.921 30.926C182.825 30.71 182.777 30.518 182.777 30.35C182.777 29.966 182.945 29.642 183.281 29.378C183.617 29.102 183.995 28.964 184.415 28.964C184.703 28.964 184.967 29.042 185.207 29.198C185.459 29.342 185.651 29.564 185.783 29.864L187.691 34.004L189.581 29.864ZM195.403 38.108C194.947 38.108 194.563 37.988 194.251 37.748C193.951 37.496 193.801 37.124 193.801 36.632V26.714C193.801 26.222 193.951 25.85 194.251 25.598C194.563 25.346 194.947 25.22 195.403 25.22C195.859 25.22 196.237 25.346 196.537 25.598C196.849 25.85 197.005 26.222 197.005 26.714V36.632C197.005 37.124 196.849 37.496 196.537 37.748C196.237 37.988 195.859 38.108 195.403 38.108ZM206.19 28.964C206.682 28.964 207.072 29.096 207.36 29.36C207.648 29.624 207.792 29.984 207.792 30.44V36.668C207.792 37.088 207.642 37.436 207.342 37.712C207.042 37.976 206.652 38.108 206.172 38.108C205.74 38.108 205.386 37.994 205.11 37.766C204.834 37.526 204.69 37.208 204.678 36.812C204.402 37.244 204.048 37.574 203.616 37.802C203.196 38.03 202.71 38.144 202.158 38.144C201.018 38.144 200.172 37.832 199.62 37.208C199.068 36.572 198.792 35.612 198.792 34.328V30.44C198.792 29.984 198.936 29.624 199.224 29.36C199.512 29.096 199.902 28.964 200.394 28.964C200.886 28.964 201.276 29.096 201.564 29.36C201.852 29.624 201.996 29.984 201.996 30.44V34.4C201.996 35.264 202.368 35.696 203.112 35.696C203.544 35.696 203.898 35.54 204.174 35.228C204.45 34.916 204.588 34.508 204.588 34.004V30.44C204.588 29.984 204.732 29.624 205.02 29.36C205.308 29.096 205.698 28.964 206.19 28.964ZM213.149 38.144C212.345 38.144 211.667 38.084 211.115 37.964C210.563 37.844 210.077 37.652 209.657 37.388C209.489 37.304 209.357 37.16 209.261 36.956C209.165 36.752 209.117 36.524 209.117 36.272C209.117 35.948 209.201 35.684 209.369 35.48C209.549 35.264 209.771 35.156 210.035 35.156C210.215 35.156 210.383 35.18 210.539 35.228C210.695 35.264 210.887 35.33 211.115 35.426C211.499 35.558 211.835 35.66 212.123 35.732C212.423 35.804 212.801 35.84 213.257 35.84C213.581 35.84 213.833 35.798 214.013 35.714C214.205 35.618 214.301 35.486 214.301 35.318C214.301 35.186 214.253 35.084 214.157 35.012C214.073 34.94 213.905 34.874 213.653 34.814C213.401 34.742 212.975 34.646 212.375 34.526C211.307 34.322 210.533 34.016 210.053 33.608C209.585 33.188 209.351 32.6 209.351 31.844C209.351 31.292 209.519 30.794 209.855 30.35C210.203 29.906 210.677 29.558 211.277 29.306C211.877 29.054 212.549 28.928 213.293 28.928C213.833 28.928 214.355 28.994 214.859 29.126C215.375 29.258 215.831 29.444 216.227 29.684C216.599 29.9 216.785 30.248 216.785 30.728C216.785 31.064 216.695 31.346 216.515 31.574C216.335 31.802 216.113 31.916 215.849 31.916C215.537 31.916 215.165 31.814 214.733 31.61C214.445 31.478 214.187 31.382 213.959 31.322C213.743 31.25 213.485 31.214 213.185 31.214C212.885 31.214 212.651 31.262 212.483 31.358C212.315 31.442 212.231 31.568 212.231 31.736C212.231 31.928 212.345 32.078 212.573 32.186C212.813 32.294 213.281 32.414 213.977 32.546C215.141 32.75 215.963 33.062 216.443 33.482C216.923 33.89 217.163 34.484 217.163 35.264C217.163 36.14 216.797 36.842 216.065 37.37C215.345 37.886 214.373 38.144 213.149 38.144Z" fill="white"/>
<rect x="7" y="7" width="50" height="50" rx="25" fill="white"/>
<path d="M29.5 22C29.5 21.337 29.7634 20.7011 30.2322 20.2322C30.7011 19.7634 31.337 19.5 32 19.5C32.663 19.5 33.2989 19.7634 33.7678 20.2322C34.2366 20.7011 34.5 21.337 34.5 22V26.375H37.9375C38.3068 26.375 38.6726 26.4477 39.0138 26.5891C39.355 26.7304 39.6651 26.9376 39.9262 27.1988C40.1874 27.4599 40.3946 27.77 40.5359 28.1112C40.6772 28.4524 40.75 28.8182 40.75 29.1875V31.375H23.3625C23.3731 30.5962 23.3656 29.8172 23.34 29.0387C23.2937 27.6162 24.4225 26.375 25.89 26.375H29.5V22Z" fill="#797979"/>
<path d="M23.2988 33.25H40.75V34.6825C40.4171 34.5372 40.0533 34.4771 39.6913 34.5076C39.3294 34.5381 38.9807 34.6583 38.6769 34.8572C38.373 35.0562 38.1234 35.3277 37.9507 35.6472C37.778 35.9668 37.6875 36.3243 37.6875 36.6875V39.7413C37.2237 39.5031 36.6901 39.4384 36.1828 39.5589C35.6755 39.6794 35.2279 39.9772 34.9207 40.3985C34.6136 40.8198 34.467 41.337 34.5074 41.8569C34.5479 42.3767 34.7727 42.865 35.1413 43.2337L36.4063 44.5H30.1925C30.3988 44.02 30.6425 43.41 30.8575 42.765C31.0464 42.2178 31.1951 41.6576 31.3025 41.0887C31.3362 40.8972 31.3595 40.704 31.3725 40.51L31.375 40.4663V40.4375C31.3767 40.1889 31.2795 39.9497 31.1049 39.7728C30.9302 39.5958 30.6924 39.4954 30.4438 39.4938C30.1952 39.4921 29.956 39.5893 29.7791 39.7639C29.6021 39.9386 29.5017 40.1764 29.5 40.425C29.4905 40.5386 29.4755 40.6516 29.455 40.7637C29.405 41.045 29.3 41.5088 29.08 42.1725C28.8117 42.9665 28.4961 43.7437 28.135 44.5H26.4575C26.61 44.1663 26.785 43.77 26.9663 43.3387C27.4738 42.1275 28.0663 40.545 28.2413 39.32C28.2587 39.1981 28.2519 39.074 28.2214 38.9547C28.1908 38.8355 28.137 38.7234 28.0631 38.6249C27.9893 38.5264 27.8967 38.4434 27.7908 38.3807C27.6848 38.318 27.5676 38.2768 27.4457 38.2594C27.3238 38.242 27.1997 38.2488 27.0804 38.2793C26.9611 38.3099 26.8491 38.3636 26.7506 38.4375C26.6521 38.5114 26.5691 38.604 26.5064 38.7099C26.4437 38.8159 26.4024 38.9331 26.385 39.055C26.2475 40.0175 25.745 41.4037 25.2375 42.6137C24.9703 43.2496 24.6869 43.8786 24.3875 44.5H21.6875C21.519 44.5 21.3536 44.4546 21.2087 44.3685C21.0638 44.2824 20.9447 44.1588 20.8641 44.0108C20.7835 43.8628 20.7443 43.6958 20.7507 43.5274C20.757 43.3589 20.8086 43.1953 20.9 43.0538C22.085 41.2225 22.7375 38.5775 23.0688 35.8925C23.1754 35.0145 23.2521 34.1332 23.2988 33.25V33.25Z" fill="#797979"/>
<path d="M36.0252 41.025C36.2009 40.8494 36.4392 40.7508 36.6877 40.7508C36.9361 40.7508 37.1744 40.8494 37.3502 41.025L38.9377 42.6125V36.6875C38.9377 36.4389 39.0364 36.2004 39.2122 36.0246C39.3881 35.8488 39.6265 35.75 39.8752 35.75C40.1238 35.75 40.3622 35.8488 40.5381 36.0246C40.7139 36.2004 40.8127 36.4389 40.8127 36.6875V42.4875L42.2752 41.025C42.361 40.9329 42.4645 40.859 42.5795 40.8078C42.6945 40.7565 42.8186 40.729 42.9445 40.7268C43.0704 40.7245 43.1954 40.7477 43.3121 40.7948C43.4289 40.842 43.5349 40.9122 43.6239 41.0012C43.713 41.0902 43.7832 41.1963 43.8303 41.313C43.8775 41.4297 43.9006 41.5548 43.8984 41.6807C43.8962 41.8065 43.8686 41.9307 43.8174 42.0457C43.7661 42.1607 43.6923 42.2642 43.6002 42.35L40.4752 45.475C40.2994 45.6506 40.0611 45.7492 39.8127 45.7492C39.5642 45.7492 39.3259 45.6506 39.1502 45.475L36.0252 42.35C35.8496 42.1742 35.751 41.9359 35.751 41.6875C35.751 41.4391 35.8496 41.2008 36.0252 41.025V41.025Z" fill="#797979"/>
</svg>
