<svg width="242" height="64" viewBox="0 0 242 64" fill="none" xmlns="http://www.w3.org/2000/svg">
<rect width="242" height="64" rx="10" fill="#863CFF"/>
<path d="M90.8201 35.894C91.0361 36.218 91.1441 36.524 91.1441 36.812C91.1441 37.196 90.9821 37.52 90.6581 37.784C90.3461 38.036 89.9801 38.162 89.5601 38.162C89.2721 38.162 89.0021 38.096 88.7501 37.964C88.4981 37.832 88.2821 37.634 88.1021 37.37L85.7621 33.95C85.5941 33.71 85.4141 33.536 85.2221 33.428C85.0421 33.308 84.8261 33.248 84.5741 33.248H83.4041V36.47C83.4041 36.974 83.2601 37.376 82.9721 37.676C82.6841 37.964 82.2881 38.108 81.7841 38.108C81.2801 38.108 80.8781 37.964 80.5781 37.676C80.2901 37.376 80.1461 36.974 80.1461 36.47V26.84C80.1461 26.348 80.2781 25.97 80.5421 25.706C80.8061 25.442 81.1841 25.31 81.6761 25.31H86.1941C87.7301 25.31 88.8821 25.646 89.6501 26.318C90.4301 26.978 90.8201 27.938 90.8201 29.198C90.8201 30.158 90.5561 30.974 90.0281 31.646C89.5001 32.306 88.7561 32.75 87.7961 32.978C88.1921 33.038 88.5341 33.17 88.8221 33.374C89.1221 33.578 89.4161 33.884 89.7041 34.292L90.8201 35.894ZM85.6721 30.764C86.4041 30.764 86.9261 30.65 87.2381 30.422C87.5621 30.194 87.7241 29.822 87.7241 29.306C87.7241 28.778 87.5621 28.4 87.2381 28.172C86.9261 27.932 86.4041 27.812 85.6721 27.812H83.3681V30.764H85.6721ZM99.8567 35.156C100.133 35.156 100.355 35.264 100.523 35.48C100.703 35.696 100.793 35.978 100.793 36.326C100.793 36.806 100.559 37.172 100.091 37.424C99.6827 37.628 99.1967 37.802 98.6327 37.946C98.0807 38.078 97.5707 38.144 97.1027 38.144C96.1187 38.144 95.2607 37.958 94.5287 37.586C93.7967 37.214 93.2327 36.68 92.8367 35.984C92.4407 35.288 92.2427 34.472 92.2427 33.536C92.2427 32.648 92.4287 31.856 92.8007 31.16C93.1847 30.452 93.7127 29.906 94.3847 29.522C95.0687 29.126 95.8367 28.928 96.6887 28.928C97.5167 28.928 98.2427 29.108 98.8667 29.468C99.4907 29.828 99.9707 30.338 100.307 30.998C100.655 31.658 100.829 32.432 100.829 33.32C100.829 33.596 100.763 33.812 100.631 33.968C100.511 34.112 100.331 34.184 100.091 34.184H95.3387C95.4227 34.76 95.6087 35.174 95.8967 35.426C96.1847 35.678 96.6107 35.804 97.1747 35.804C97.4747 35.804 97.7507 35.774 98.0027 35.714C98.2547 35.642 98.5367 35.546 98.8487 35.426C99.0287 35.354 99.2027 35.294 99.3707 35.246C99.5507 35.186 99.7127 35.156 99.8567 35.156ZM96.7787 31.088C96.3587 31.088 96.0227 31.226 95.7707 31.502C95.5187 31.766 95.3687 32.156 95.3207 32.672H98.1467C98.0747 31.616 97.6187 31.088 96.7787 31.088ZM108.018 29.864C108.15 29.564 108.33 29.342 108.558 29.198C108.798 29.054 109.056 28.982 109.332 28.982C109.728 28.982 110.076 29.114 110.376 29.378C110.688 29.642 110.844 29.96 110.844 30.332C110.844 30.536 110.796 30.734 110.7 30.926L107.55 37.19C107.406 37.49 107.196 37.724 106.92 37.892C106.656 38.048 106.362 38.126 106.038 38.126C105.714 38.126 105.414 38.048 105.138 37.892C104.862 37.724 104.652 37.49 104.508 37.19L101.358 30.926C101.262 30.71 101.214 30.518 101.214 30.35C101.214 29.966 101.376 29.642 101.7 29.378C102.036 29.102 102.42 28.964 102.852 28.964C103.14 28.964 103.404 29.042 103.644 29.198C103.896 29.342 104.088 29.564 104.22 29.864L106.128 33.986L108.018 29.864ZM118.841 35.156C119.117 35.156 119.339 35.264 119.507 35.48C119.687 35.696 119.777 35.978 119.777 36.326C119.777 36.806 119.543 37.172 119.075 37.424C118.667 37.628 118.181 37.802 117.617 37.946C117.065 38.078 116.555 38.144 116.087 38.144C115.103 38.144 114.245 37.958 113.513 37.586C112.781 37.214 112.217 36.68 111.821 35.984C111.425 35.288 111.227 34.472 111.227 33.536C111.227 32.648 111.413 31.856 111.785 31.16C112.169 30.452 112.697 29.906 113.369 29.522C114.053 29.126 114.821 28.928 115.673 28.928C116.501 28.928 117.227 29.108 117.851 29.468C118.475 29.828 118.955 30.338 119.291 30.998C119.639 31.658 119.813 32.432 119.813 33.32C119.813 33.596 119.747 33.812 119.615 33.968C119.495 34.112 119.315 34.184 119.075 34.184H114.323C114.407 34.76 114.593 35.174 114.881 35.426C115.169 35.678 115.595 35.804 116.159 35.804C116.459 35.804 116.735 35.774 116.987 35.714C117.239 35.642 117.521 35.546 117.833 35.426C118.013 35.354 118.187 35.294 118.355 35.246C118.535 35.186 118.697 35.156 118.841 35.156ZM115.763 31.088C115.343 31.088 115.007 31.226 114.755 31.502C114.503 31.766 114.353 32.156 114.305 32.672H117.131C117.059 31.616 116.603 31.088 115.763 31.088ZM127.232 28.928C128.288 28.928 129.074 29.246 129.59 29.882C130.106 30.506 130.364 31.46 130.364 32.744V36.632C130.364 37.088 130.22 37.448 129.932 37.712C129.644 37.976 129.254 38.108 128.762 38.108C128.27 38.108 127.88 37.976 127.592 37.712C127.304 37.448 127.16 37.088 127.16 36.632V32.888C127.16 32.36 127.064 31.976 126.872 31.736C126.692 31.496 126.416 31.376 126.044 31.376C125.564 31.376 125.18 31.532 124.892 31.844C124.616 32.144 124.478 32.552 124.478 33.068V36.632C124.478 37.088 124.334 37.448 124.046 37.712C123.758 37.976 123.368 38.108 122.876 38.108C122.384 38.108 121.994 37.976 121.706 37.712C121.418 37.448 121.274 37.088 121.274 36.632V30.404C121.274 29.984 121.424 29.642 121.724 29.378C122.024 29.102 122.414 28.964 122.894 28.964C123.35 28.964 123.71 29.09 123.974 29.342C124.25 29.594 124.388 29.924 124.388 30.332C124.7 29.876 125.102 29.528 125.594 29.288C126.086 29.048 126.632 28.928 127.232 28.928ZM133.774 38.108C133.318 38.108 132.934 37.988 132.622 37.748C132.322 37.496 132.172 37.124 132.172 36.632V30.44C132.172 29.948 132.322 29.582 132.622 29.342C132.934 29.09 133.318 28.964 133.774 28.964C134.23 28.964 134.608 29.09 134.908 29.342C135.22 29.582 135.376 29.948 135.376 30.44V36.632C135.376 37.124 135.22 37.496 134.908 37.748C134.608 37.988 134.23 38.108 133.774 38.108ZM133.774 27.704C133.234 27.704 132.802 27.566 132.478 27.29C132.166 27.002 132.01 26.624 132.01 26.156C132.01 25.688 132.166 25.316 132.478 25.04C132.802 24.764 133.234 24.626 133.774 24.626C134.302 24.626 134.728 24.764 135.052 25.04C135.376 25.316 135.538 25.688 135.538 26.156C135.538 26.624 135.376 27.002 135.052 27.29C134.74 27.566 134.314 27.704 133.774 27.704ZM142.851 28.964C143.259 28.928 143.583 29.024 143.823 29.252C144.063 29.468 144.183 29.792 144.183 30.224C144.183 30.704 144.069 31.052 143.841 31.268C143.625 31.484 143.229 31.622 142.653 31.682L142.113 31.736C141.513 31.808 141.081 32 140.817 32.312C140.565 32.612 140.439 33.026 140.439 33.554V36.632C140.439 37.124 140.283 37.496 139.971 37.748C139.671 37.988 139.293 38.108 138.837 38.108C138.381 38.108 137.997 37.988 137.685 37.748C137.385 37.496 137.235 37.124 137.235 36.632V30.404C137.235 29.948 137.385 29.594 137.685 29.342C137.997 29.09 138.369 28.964 138.801 28.964C139.245 28.964 139.599 29.084 139.863 29.324C140.139 29.564 140.277 29.9 140.277 30.332V30.674C140.469 30.146 140.781 29.738 141.213 29.45C141.657 29.162 142.119 29.006 142.599 28.982L142.851 28.964ZM154.048 28.928C155.416 28.928 156.424 29.258 157.072 29.918C157.732 30.566 158.062 31.556 158.062 32.888V36.65C158.062 37.106 157.924 37.466 157.648 37.73C157.384 37.982 157.012 38.108 156.532 38.108C156.112 38.108 155.764 37.988 155.488 37.748C155.224 37.508 155.08 37.184 155.056 36.776C154.888 37.208 154.606 37.544 154.21 37.784C153.814 38.024 153.34 38.144 152.788 38.144C152.176 38.144 151.624 38.024 151.132 37.784C150.64 37.532 150.25 37.19 149.962 36.758C149.686 36.314 149.548 35.816 149.548 35.264C149.548 34.628 149.71 34.124 150.034 33.752C150.37 33.368 150.898 33.092 151.618 32.924C152.338 32.756 153.31 32.672 154.534 32.672H155.02V32.456C155.02 32.036 154.924 31.736 154.732 31.556C154.54 31.364 154.216 31.268 153.76 31.268C153.268 31.268 152.548 31.436 151.6 31.772C151.324 31.868 151.09 31.916 150.898 31.916C150.598 31.916 150.358 31.808 150.178 31.592C149.998 31.376 149.908 31.094 149.908 30.746C149.908 30.482 149.962 30.266 150.07 30.098C150.178 29.93 150.352 29.78 150.592 29.648C151.012 29.432 151.54 29.258 152.176 29.126C152.812 28.994 153.436 28.928 154.048 28.928ZM153.544 36.002C153.976 36.002 154.33 35.852 154.606 35.552C154.882 35.24 155.02 34.844 155.02 34.364V34.148H154.732C153.964 34.148 153.418 34.22 153.094 34.364C152.77 34.496 152.608 34.724 152.608 35.048C152.608 35.324 152.692 35.552 152.86 35.732C153.04 35.912 153.268 36.002 153.544 36.002ZM166.61 38.108C166.154 38.108 165.77 37.988 165.458 37.748C165.158 37.496 165.008 37.124 165.008 36.632V26.714C165.008 26.222 165.158 25.85 165.458 25.598C165.77 25.346 166.154 25.22 166.61 25.22C167.066 25.22 167.444 25.346 167.744 25.598C168.056 25.85 168.212 26.222 168.212 26.714V36.632C168.212 37.124 168.056 37.496 167.744 37.748C167.444 37.988 167.066 38.108 166.61 38.108ZM174.193 28.928C175.561 28.928 176.569 29.258 177.217 29.918C177.877 30.566 178.207 31.556 178.207 32.888V36.65C178.207 37.106 178.069 37.466 177.793 37.73C177.529 37.982 177.157 38.108 176.677 38.108C176.257 38.108 175.909 37.988 175.633 37.748C175.369 37.508 175.225 37.184 175.201 36.776C175.033 37.208 174.751 37.544 174.355 37.784C173.959 38.024 173.485 38.144 172.933 38.144C172.321 38.144 171.769 38.024 171.277 37.784C170.785 37.532 170.395 37.19 170.107 36.758C169.831 36.314 169.693 35.816 169.693 35.264C169.693 34.628 169.855 34.124 170.179 33.752C170.515 33.368 171.043 33.092 171.763 32.924C172.483 32.756 173.455 32.672 174.679 32.672H175.165V32.456C175.165 32.036 175.069 31.736 174.877 31.556C174.685 31.364 174.361 31.268 173.905 31.268C173.413 31.268 172.693 31.436 171.745 31.772C171.469 31.868 171.235 31.916 171.043 31.916C170.743 31.916 170.503 31.808 170.323 31.592C170.143 31.376 170.053 31.094 170.053 30.746C170.053 30.482 170.107 30.266 170.215 30.098C170.323 29.93 170.497 29.78 170.737 29.648C171.157 29.432 171.685 29.258 172.321 29.126C172.957 28.994 173.581 28.928 174.193 28.928ZM173.689 36.002C174.121 36.002 174.475 35.852 174.751 35.552C175.027 35.24 175.165 34.844 175.165 34.364V34.148H174.877C174.109 34.148 173.563 34.22 173.239 34.364C172.915 34.496 172.753 34.724 172.753 35.048C172.753 35.324 172.837 35.552 173.005 35.732C173.185 35.912 173.413 36.002 173.689 36.002ZM186.755 38.108C186.299 38.108 185.915 37.988 185.603 37.748C185.303 37.496 185.153 37.124 185.153 36.632V26.714C185.153 26.222 185.303 25.85 185.603 25.598C185.915 25.346 186.299 25.22 186.755 25.22C187.211 25.22 187.589 25.346 187.889 25.598C188.201 25.85 188.357 26.222 188.357 26.714V36.632C188.357 37.124 188.201 37.496 187.889 37.748C187.589 37.988 187.211 38.108 186.755 38.108ZM191.817 38.108C191.361 38.108 190.977 37.988 190.665 37.748C190.365 37.496 190.215 37.124 190.215 36.632V30.44C190.215 29.948 190.365 29.582 190.665 29.342C190.977 29.09 191.361 28.964 191.817 28.964C192.273 28.964 192.651 29.09 192.951 29.342C193.263 29.582 193.419 29.948 193.419 30.44V36.632C193.419 37.124 193.263 37.496 192.951 37.748C192.651 37.988 192.273 38.108 191.817 38.108ZM191.817 27.704C191.277 27.704 190.845 27.566 190.521 27.29C190.209 27.002 190.053 26.624 190.053 26.156C190.053 25.688 190.209 25.316 190.521 25.04C190.845 24.764 191.277 24.626 191.817 24.626C192.345 24.626 192.771 24.764 193.095 25.04C193.419 25.316 193.581 25.688 193.581 26.156C193.581 26.624 193.419 27.002 193.095 27.29C192.783 27.566 192.357 27.704 191.817 27.704ZM198.77 38.144C197.966 38.144 197.288 38.084 196.736 37.964C196.184 37.844 195.698 37.652 195.278 37.388C195.11 37.304 194.978 37.16 194.882 36.956C194.786 36.752 194.738 36.524 194.738 36.272C194.738 35.948 194.822 35.684 194.99 35.48C195.17 35.264 195.392 35.156 195.656 35.156C195.836 35.156 196.004 35.18 196.16 35.228C196.316 35.264 196.508 35.33 196.736 35.426C197.12 35.558 197.456 35.66 197.744 35.732C198.044 35.804 198.422 35.84 198.878 35.84C199.202 35.84 199.454 35.798 199.634 35.714C199.826 35.618 199.922 35.486 199.922 35.318C199.922 35.186 199.874 35.084 199.778 35.012C199.694 34.94 199.526 34.874 199.274 34.814C199.022 34.742 198.596 34.646 197.996 34.526C196.928 34.322 196.154 34.016 195.674 33.608C195.206 33.188 194.972 32.6 194.972 31.844C194.972 31.292 195.14 30.794 195.476 30.35C195.824 29.906 196.298 29.558 196.898 29.306C197.498 29.054 198.17 28.928 198.914 28.928C199.454 28.928 199.976 28.994 200.48 29.126C200.996 29.258 201.452 29.444 201.848 29.684C202.22 29.9 202.406 30.248 202.406 30.728C202.406 31.064 202.316 31.346 202.136 31.574C201.956 31.802 201.734 31.916 201.47 31.916C201.158 31.916 200.786 31.814 200.354 31.61C200.066 31.478 199.808 31.382 199.58 31.322C199.364 31.25 199.106 31.214 198.806 31.214C198.506 31.214 198.272 31.262 198.104 31.358C197.936 31.442 197.852 31.568 197.852 31.736C197.852 31.928 197.966 32.078 198.194 32.186C198.434 32.294 198.902 32.414 199.598 32.546C200.762 32.75 201.584 33.062 202.064 33.482C202.544 33.89 202.784 34.484 202.784 35.264C202.784 36.14 202.418 36.842 201.686 37.37C200.966 37.886 199.994 38.144 198.77 38.144ZM209.252 35.822C210.056 35.87 210.458 36.23 210.458 36.902C210.458 37.322 210.296 37.634 209.972 37.838C209.648 38.042 209.186 38.126 208.586 38.09L208.082 38.054C207.002 37.97 206.18 37.646 205.616 37.082C205.064 36.506 204.788 35.708 204.788 34.688V31.502H204.266C203.306 31.502 202.826 31.106 202.826 30.314C202.826 29.534 203.306 29.144 204.266 29.144H204.788V27.974C204.788 27.518 204.932 27.158 205.22 26.894C205.508 26.618 205.898 26.48 206.39 26.48C206.882 26.48 207.272 26.618 207.56 26.894C207.848 27.158 207.992 27.518 207.992 27.974V29.144H208.982C209.942 29.144 210.422 29.534 210.422 30.314C210.422 31.106 209.942 31.502 208.982 31.502H207.992V34.958C207.992 35.186 208.058 35.378 208.19 35.534C208.334 35.69 208.514 35.774 208.73 35.786L209.252 35.822ZM218.509 35.156C218.785 35.156 219.007 35.264 219.175 35.48C219.355 35.696 219.445 35.978 219.445 36.326C219.445 36.806 219.211 37.172 218.743 37.424C218.335 37.628 217.849 37.802 217.285 37.946C216.733 38.078 216.223 38.144 215.755 38.144C214.771 38.144 213.913 37.958 213.181 37.586C212.449 37.214 211.885 36.68 211.489 35.984C211.093 35.288 210.895 34.472 210.895 33.536C210.895 32.648 211.081 31.856 211.453 31.16C211.837 30.452 212.365 29.906 213.037 29.522C213.721 29.126 214.489 28.928 215.341 28.928C216.169 28.928 216.895 29.108 217.519 29.468C218.143 29.828 218.623 30.338 218.959 30.998C219.307 31.658 219.481 32.432 219.481 33.32C219.481 33.596 219.415 33.812 219.283 33.968C219.163 34.112 218.983 34.184 218.743 34.184H213.991C214.075 34.76 214.261 35.174 214.549 35.426C214.837 35.678 215.263 35.804 215.827 35.804C216.127 35.804 216.403 35.774 216.655 35.714C216.907 35.642 217.189 35.546 217.501 35.426C217.681 35.354 217.855 35.294 218.023 35.246C218.203 35.186 218.365 35.156 218.509 35.156ZM215.431 31.088C215.011 31.088 214.675 31.226 214.423 31.502C214.171 31.766 214.021 32.156 213.973 32.672H216.799C216.727 31.616 216.271 31.088 215.431 31.088Z" fill="white"/>
<rect x="7" y="7" width="50" height="50" rx="25" fill="white"/>
<path d="M30.24 20.6427C30.7325 20.2276 31.3558 20 31.9999 20C32.644 20 33.2673 20.2276 33.7598 20.6427L41.9522 27.5547C42.5687 28.0729 42.9231 28.8363 42.9231 29.6422V41.5389C42.9231 42.1022 42.6994 42.6424 42.301 43.0407C41.9027 43.439 41.3625 43.6628 40.7992 43.6628H37.1581C36.5948 43.6628 36.0545 43.439 35.6562 43.0407C35.2579 42.6424 35.0341 42.1022 35.0341 41.5389V35.4704C35.0341 35.229 34.9382 34.9974 34.7675 34.8267C34.5968 34.656 34.3653 34.5601 34.1239 34.5601H29.8759C29.6345 34.5601 29.403 34.656 29.2323 34.8267C29.0616 34.9974 28.9657 35.229 28.9657 35.4704V41.5389C28.9657 42.1022 28.7419 42.6424 28.3436 43.0407C27.9453 43.439 27.405 43.6628 26.8417 43.6628H23.2006C22.9217 43.6628 22.6455 43.6079 22.3878 43.5011C22.1301 43.3944 21.896 43.2379 21.6988 43.0407C21.5015 42.8435 21.3451 42.6093 21.2383 42.3517C21.1316 42.094 21.0767 41.8178 21.0767 41.5389V29.641C21.0767 28.8363 21.4311 28.0729 22.0476 27.5535L30.24 20.6427V20.6427Z" fill="#797979"/>
</svg>
